<mxfile host="app.diagrams.net" modified="2024-07-16T15:51:42.335Z" agent="Mozilla/5.0 (Windows NT 10.0; Win64; x64) AppleWebKit/537.36 (KHTML, like Gecko) Chrome/126.0.0.0 Safari/537.36" etag="rbcqV1Bi4dYdYhWHuKJl" version="24.6.5" type="device">
  <diagram name="Page-1" id="Od4JK_tHNh1pBcXdJQzk">
    <mxGraphModel dx="1886" dy="772" grid="1" gridSize="10" guides="1" tooltips="1" connect="1" arrows="1" fold="1" page="1" pageScale="1" pageWidth="827" pageHeight="1169" math="0" shadow="0">
      <root>
        <mxCell id="0" />
        <mxCell id="1" parent="0" />
        <mxCell id="zIQCAD7lsrF_Azb1_EE6-3" style="edgeStyle=orthogonalEdgeStyle;rounded=0;orthogonalLoop=1;jettySize=auto;html=1;exitX=0.5;exitY=1;exitDx=0;exitDy=0;entryX=0.5;entryY=0;entryDx=0;entryDy=0;" edge="1" parent="1" source="zIQCAD7lsrF_Azb1_EE6-1" target="zIQCAD7lsrF_Azb1_EE6-2">
          <mxGeometry relative="1" as="geometry" />
        </mxCell>
        <mxCell id="zIQCAD7lsrF_Azb1_EE6-1" value="START" style="rounded=1;whiteSpace=wrap;html=1;arcSize=50;" vertex="1" parent="1">
          <mxGeometry x="351" y="20" width="126" height="40" as="geometry" />
        </mxCell>
        <mxCell id="zIQCAD7lsrF_Azb1_EE6-6" value="" style="edgeStyle=orthogonalEdgeStyle;rounded=0;orthogonalLoop=1;jettySize=auto;html=1;" edge="1" parent="1" source="zIQCAD7lsrF_Azb1_EE6-2" target="zIQCAD7lsrF_Azb1_EE6-4">
          <mxGeometry relative="1" as="geometry" />
        </mxCell>
        <mxCell id="zIQCAD7lsrF_Azb1_EE6-2" value="Ввод массива строк с клавиатуры input_string&lt;br&gt;, через пробел&lt;div&gt;Разбивка строки на отдельные элементы &lt;br&gt;input_attay.&lt;br&gt;Объявление переменных result&lt;/div&gt;" style="shape=parallelogram;perimeter=parallelogramPerimeter;whiteSpace=wrap;html=1;fixedSize=1;size=39;" vertex="1" parent="1">
          <mxGeometry x="244.5" y="100" width="339" height="70" as="geometry" />
        </mxCell>
        <mxCell id="zIQCAD7lsrF_Azb1_EE6-8" value="" style="edgeStyle=orthogonalEdgeStyle;rounded=0;orthogonalLoop=1;jettySize=auto;html=1;" edge="1" parent="1" source="zIQCAD7lsrF_Azb1_EE6-4" target="zIQCAD7lsrF_Azb1_EE6-7">
          <mxGeometry relative="1" as="geometry" />
        </mxCell>
        <mxCell id="zIQCAD7lsrF_Azb1_EE6-4" value="цикл для проверки всех элементов массива&lt;div&gt;for string in array&lt;/div&gt;" style="shape=hexagon;perimeter=hexagonPerimeter2;whiteSpace=wrap;html=1;fixedSize=1;" vertex="1" parent="1">
          <mxGeometry x="283.5" y="230" width="261" height="80" as="geometry" />
        </mxCell>
        <mxCell id="zIQCAD7lsrF_Azb1_EE6-9" style="edgeStyle=orthogonalEdgeStyle;rounded=0;orthogonalLoop=1;jettySize=auto;html=1;exitX=0;exitY=0.5;exitDx=0;exitDy=0;entryX=0;entryY=0.5;entryDx=0;entryDy=0;" edge="1" parent="1" source="zIQCAD7lsrF_Azb1_EE6-7" target="zIQCAD7lsrF_Azb1_EE6-4">
          <mxGeometry relative="1" as="geometry">
            <mxPoint x="250" y="270" as="targetPoint" />
            <mxPoint x="318" y="395" as="sourcePoint" />
            <Array as="points">
              <mxPoint x="251" y="395" />
              <mxPoint x="251" y="270" />
            </Array>
          </mxGeometry>
        </mxCell>
        <mxCell id="zIQCAD7lsrF_Azb1_EE6-13" value="" style="edgeStyle=orthogonalEdgeStyle;rounded=0;orthogonalLoop=1;jettySize=auto;html=1;" edge="1" parent="1" source="zIQCAD7lsrF_Azb1_EE6-7" target="zIQCAD7lsrF_Azb1_EE6-12">
          <mxGeometry relative="1" as="geometry" />
        </mxCell>
        <mxCell id="zIQCAD7lsrF_Azb1_EE6-7" value="проверка длины&lt;br&gt;if &amp;lt;= 3" style="rhombus;whiteSpace=wrap;html=1;" vertex="1" parent="1">
          <mxGeometry x="348" y="350" width="131" height="90" as="geometry" />
        </mxCell>
        <mxCell id="zIQCAD7lsrF_Azb1_EE6-10" value="NO" style="text;html=1;align=center;verticalAlign=middle;resizable=0;points=[];autosize=1;strokeColor=none;fillColor=none;" vertex="1" parent="1">
          <mxGeometry x="301" y="367" width="40" height="30" as="geometry" />
        </mxCell>
        <mxCell id="zIQCAD7lsrF_Azb1_EE6-14" style="edgeStyle=orthogonalEdgeStyle;rounded=0;orthogonalLoop=1;jettySize=auto;html=1;" edge="1" parent="1" source="zIQCAD7lsrF_Azb1_EE6-12">
          <mxGeometry relative="1" as="geometry">
            <mxPoint x="280" y="270" as="targetPoint" />
            <Array as="points">
              <mxPoint x="201" y="540" />
            </Array>
          </mxGeometry>
        </mxCell>
        <mxCell id="zIQCAD7lsrF_Azb1_EE6-12" value="добавление элемента в &lt;br&gt;result&amp;nbsp;&amp;nbsp;" style="rounded=0;whiteSpace=wrap;html=1;" vertex="1" parent="1">
          <mxGeometry x="319.5" y="510" width="189" height="60" as="geometry" />
        </mxCell>
        <mxCell id="zIQCAD7lsrF_Azb1_EE6-15" value="YES" style="text;html=1;align=center;verticalAlign=middle;resizable=0;points=[];autosize=1;strokeColor=none;fillColor=none;" vertex="1" parent="1">
          <mxGeometry x="415" y="440" width="50" height="30" as="geometry" />
        </mxCell>
        <mxCell id="zIQCAD7lsrF_Azb1_EE6-19" value="" style="edgeStyle=orthogonalEdgeStyle;rounded=0;orthogonalLoop=1;jettySize=auto;html=1;" edge="1" parent="1" source="zIQCAD7lsrF_Azb1_EE6-16" target="zIQCAD7lsrF_Azb1_EE6-18">
          <mxGeometry relative="1" as="geometry" />
        </mxCell>
        <mxCell id="zIQCAD7lsrF_Azb1_EE6-16" value="Вывод result на экран" style="shape=document;whiteSpace=wrap;html=1;boundedLbl=1;" vertex="1" parent="1">
          <mxGeometry x="354" y="630" width="120" height="80" as="geometry" />
        </mxCell>
        <mxCell id="zIQCAD7lsrF_Azb1_EE6-17" style="edgeStyle=orthogonalEdgeStyle;rounded=0;orthogonalLoop=1;jettySize=auto;html=1;entryX=0.592;entryY=-0.05;entryDx=0;entryDy=0;entryPerimeter=0;" edge="1" parent="1" source="zIQCAD7lsrF_Azb1_EE6-4" target="zIQCAD7lsrF_Azb1_EE6-16">
          <mxGeometry relative="1" as="geometry">
            <Array as="points">
              <mxPoint x="590" y="270" />
              <mxPoint x="590" y="600" />
              <mxPoint x="425" y="600" />
            </Array>
          </mxGeometry>
        </mxCell>
        <mxCell id="zIQCAD7lsrF_Azb1_EE6-18" value="STOP" style="rounded=1;whiteSpace=wrap;html=1;arcSize=50;" vertex="1" parent="1">
          <mxGeometry x="351" y="790" width="126" height="40" as="geometry" />
        </mxCell>
      </root>
    </mxGraphModel>
  </diagram>
</mxfile>
